# xmcd
#
# Track frame offsets:
#	150
#	12253
#	35109
#	60252
#	87852
#	111589
#	117410
#	139002
#	162465
#	187786
#	210192
#	221873
#
# Disc length: 3355 seconds
#
# Revision: 1
# Processed by: cddbd v1.5.2PL0 Copyright (c) Steve Scherf et al.
# Submitted via: audiograbber 1.83.01
#
DISCID=a60d190c
DTITLE=Kebu - To Jupiter And Back (2nd Edition)
DYEAR=2014
DGENRE=Electronic
TTITLE0=Day One
TTITLE1=To Jupiter And Back
TTITLE2=Samba Saturn
TTITLE3=Basic Principles
TTITLE4=Just Another Space Odyssey
TTITLE5=Interlude No. 4
TTITLE6=Le Carnaval Dés Etoiles
TTITLE7=Pulsar
TTITLE8=Michael's Anthem
TTITLE9=The Lunar Effect
TTITLE10=Lullaby For Heidi
TTITLE11=Le Carnaval des Étoiles (Extended)
EXTD=TR.
EXTT0=
EXTT1=
EXTT2=
EXTT3=
EXTT4=
EXTT5=
EXTT6=
EXTT7=
EXTT8=
EXTT9=
EXTT10=
EXTT11=
PLAYORDER=
